<svg width="497" height="101" viewBox="0 0 497 101" fill="none" xmlns="http://www.w3.org/2000/svg">
<path d="M384.405 84.6413L402.422 25H419.966L393.335 100.38H381.779L384.405 84.6413ZM367.807 25L385.771 84.6413L388.502 100.38H376.841L350.368 25H367.807Z" fill="black"/>
<path d="M169.264 50.5405C173.085 54.6042 175 60.6353 175 68.6251V99.9108H160.449V71.0581C160.449 66.7267 159.578 63.4911 157.835 61.3601C156.093 59.2289 153.574 58.159 150.279 58.159C146.614 58.159 143.69 59.3929 141.516 61.8692C139.343 64.3455 138.247 68.0124 138.247 72.8873V99.9108H123.696V45.2599H137.592V51.6619C139.515 49.3584 141.913 47.581 144.776 46.3298C147.64 45.0788 150.78 44.4488 154.195 44.4488C160.414 44.4402 165.434 46.4764 169.264 50.5405Z" fill="black"/>
<path d="M217.86 97.2715C216.428 98.4277 214.668 99.2903 212.589 99.86C210.502 100.438 208.311 100.723 206.017 100.723C200.048 100.723 195.433 99.0659 192.165 95.7444C188.895 92.4225 187.265 87.5473 187.265 81.1194V58.669H179.52V46.4774H187.265V33.1729H201.816V46.4774H214.314V58.669H201.816V80.921C201.816 83.2248 202.36 85.0021 203.447 86.2534C204.533 87.5044 206.069 88.1341 208.061 88.1341C210.364 88.1341 212.322 87.4611 213.935 86.1065L217.86 97.2715Z" fill="black"/>
<path d="M280.178 24.5352H294.729V99.9109H280.204C280.187 99.9109 280.178 99.902 280.178 99.8849V24.5352Z" fill="black"/>
<path d="M306.106 25H320.658V100.376H306.132C306.114 100.376 306.106 100.367 306.106 100.35V25Z" fill="black"/>
<path d="M338.762 56.348H343.291C344.816 56.348 346.051 55.1141 346.051 53.587V41.8008H335.398C333.241 41.8008 331.498 43.5437 331.498 45.7009V56.348C333.266 56.348 335.613 56.348 338.762 56.348Z" fill="black"/>
<path d="M331.498 61.749V99.9202H345.981C346.016 99.9202 346.051 99.8855 346.051 99.851V61.749H331.498Z" fill="black"/>
<path d="M105.169 56.348H109.698C111.225 56.348 112.458 55.1141 112.458 53.587V41.8008H101.806C99.6494 41.8008 97.907 43.5437 97.907 45.7009V56.348C99.6753 56.348 102.03 56.348 105.169 56.348Z" fill="black"/>
<path d="M97.9163 61.749V99.9202H112.398C112.433 99.9202 112.467 99.8855 112.467 99.851V61.749H97.9163Z" fill="black"/>
<path d="M272.234 77.0541H234.274C234.955 80.4449 236.577 83.1196 239.121 85.0784C241.674 87.0456 244.84 88.0204 248.635 88.0204C251.248 88.0204 253.56 87.5976 255.587 86.7521C257.605 85.9065 259.486 84.5693 261.228 82.7401L268.973 91.8861C264.247 97.779 257.347 100.721 248.264 100.721C242.606 100.721 237.603 99.522 233.247 97.1145C228.892 94.7074 225.536 91.377 223.173 87.106C220.81 82.8349 219.628 77.9945 219.628 72.5761C219.628 67.2266 220.792 62.4036 223.13 58.0981C225.459 53.8011 228.667 50.4448 232.738 48.0377C236.809 45.6303 241.364 44.4312 246.401 44.4312C251.309 44.4312 255.76 45.5873 259.736 47.8822C263.712 50.186 266.843 53.4905 269.111 57.7875C271.38 62.093 272.518 67.08 272.518 72.7746C272.51 72.9904 272.424 74.4138 272.234 77.0541ZM238.19 59.4786C235.956 61.5147 234.584 64.2846 234.084 67.8049H258.804C258.304 64.3535 256.941 61.5925 254.699 59.5216C252.456 57.4595 249.722 56.424 246.487 56.424C243.192 56.4329 240.423 57.4424 238.19 59.4786Z" fill="black"/>
<path d="M28.8345 91.9996V58.0394C28.8345 56.8659 28.869 55.7356 28.9036 54.6483C29.0157 50.9729 29.1105 47.7891 27.696 46.3394C26.9456 45.5716 25.6949 45.1918 23.8664 45.1918C23.8664 45.1918 11.5321 45.1918 11.4631 45.1918C8.89274 45.1918 6.0895 44.5965 3.65714 45.8737C0.845282 47.349 0 50.6967 0 53.6217V100.162H31.8018C29.9558 97.9532 28.8345 95.106 28.8345 91.9996Z" fill="#E12625"/>
<path d="M38.0562 100.221C36.0377 98.5646 34.8477 96.0709 34.8477 93.4568V56.9767C34.8477 55.8638 34.8821 54.7765 34.908 53.724C35.046 49.082 35.1752 44.7939 32.467 41.9985C30.854 40.3329 28.5683 39.5307 25.4718 39.5307H10.3171C6.91006 39.5307 4.26208 38.7799 3.05454 37.4598C2.92516 37.3217 2.77852 37.2098 2.61464 37.1233C1.0362 35.3288 0.165039 33.0509 0.165039 30.6523V9.85841C0.165039 4.45717 4.55536 0.0654297 9.95481 0.0654297H28.5338C33.9334 0.0654297 38.3237 4.45717 38.3237 9.85841V30.6005C38.3237 37.2443 43.7231 42.6456 50.3647 42.6456H57.2564C62.6558 42.6456 67.0461 47.037 67.0461 52.4383V100.221H38.0562Z" fill="#E12625"/>
<path d="M43.7217 10.2042V28.3752C43.7217 33.2758 47.7066 37.2536 52.5972 37.2536C59.9892 37.2536 69.6753 38.9533 69.6753 29.4451C69.6753 29.4105 69.6753 11.231 69.6753 11.231C69.6753 5.08773 64.6552 0.0402586 58.5142 0.0402586C58.5142 0.0402586 39.9609 -0.0373986 38.7275 0.0229985C41.5135 2.34398 43.7217 6.45097 43.7217 10.2042Z" fill="#E12625"/>
<path d="M497 89.6778V100.56H454.411V89.6778H497ZM496.006 52.2163L459.591 100.56H450.487V92.0323L486.693 43.9497H496.006V52.2163ZM490.931 43.9497V54.8847H451.22V43.9497H490.931Z" fill="black"/>
<path d="M439.448 43.9487V100.56H425.583V43.9487H439.448ZM424.641 29.142C424.641 27.0841 425.338 25.375 426.734 24.0146C428.164 22.6543 430.082 21.9741 432.489 21.9741C434.896 21.9741 436.797 22.6543 438.192 24.0146C439.622 25.375 440.337 27.0841 440.337 29.142C440.337 31.1651 439.622 32.8568 438.192 34.2171C436.797 35.5775 434.896 36.2576 432.489 36.2576C430.082 36.2576 428.164 35.5775 426.734 34.2171C425.338 32.8568 424.641 31.1651 424.641 29.142Z" fill="black"/>
</svg>
