<svg width="27" height="39" viewBox="0 0 27 39" fill="none" xmlns="http://www.w3.org/2000/svg">
<path d="M10.8309 34.9656V22.2873C10.8309 21.8492 10.8439 21.4273 10.8568 21.0214C10.899 19.6492 10.9346 18.4606 10.4033 17.9195C10.1214 17.6328 9.65161 17.4911 8.96475 17.4911C8.96475 17.4911 4.33172 17.4911 4.3058 17.4911C3.34032 17.4911 2.28736 17.2688 1.37371 17.7455C0.317508 18.2964 0 19.5461 0 20.6381V38.0127H11.9454C11.2521 37.1881 10.8309 36.1252 10.8309 34.9656Z" fill="#E12625"/>
<path d="M14.2948 38.0351C13.5367 37.4167 13.0896 36.4858 13.0896 35.5098V21.8909C13.0896 21.4754 13.1025 21.0696 13.1123 20.6766C13.1641 18.9436 13.2127 17.3427 12.1954 16.2991C11.5895 15.6774 10.7309 15.3779 9.56783 15.3779H3.87535C2.5956 15.3779 1.60096 15.0976 1.14737 14.6048C1.09878 14.5533 1.0437 14.5114 0.982139 14.4792C0.389241 13.8092 0.0620117 12.9588 0.0620117 12.0633V4.30048C0.0620117 2.28407 1.71111 0.644531 3.73928 0.644531H10.718C12.7461 0.644531 14.3953 2.28407 14.3953 4.30048V12.044C14.3953 14.5243 16.4234 16.5407 18.9181 16.5407H21.5068C23.535 16.5407 25.1841 18.1802 25.1841 20.1966V38.0351H14.2948Z" fill="#E12625"/>
<path d="M16.4228 4.42961V11.2133C16.4228 13.0428 17.9196 14.5278 19.7566 14.5278C22.5332 14.5278 26.1716 15.1623 26.1716 11.6127C26.1716 11.5998 26.1716 4.81292 26.1716 4.81292C26.1716 2.51949 24.286 0.635147 21.9792 0.635147C21.9792 0.635147 15.0102 0.606155 14.5469 0.628703C15.5934 1.49518 16.4228 3.02843 16.4228 4.42961Z" fill="#E12625"/>
</svg>
